<svg xmlns="http://www.w3.org/2000/svg" viewBox="0 -960 1026 1024" width="1.0020em" height="1em"><path transform="scale(1,-1)" fill="currentColor" d="M16.882 619.993h212.693v-683.993h-212.693v683.993zM123.228 960c67.958 0 123.228-55.162 123.228-123.175 0-68.12-55.216-123.336-123.228-123.336-68.173 0-123.228 55.216-123.228 123.336 0 68.012 55.055 123.175 123.228 123.175zM362.911 619.993h203.929v-93.389h2.903c28.334 53.765 97.744 110.432 201.187 110.432 215.058 0 254.844-141.616 254.844-325.867v-375.169h-212.37v332.588c0 79.41-1.505 181.402-110.54 181.402-110.594 0-127.476-86.4-127.476-175.649v-338.34h-212.478v683.993z"/></svg>
