<svg xmlns="http://www.w3.org/2000/svg" viewBox="0 -960 1024 1024" width="1.0000em" height="1em"><path transform="scale(1,-1)" fill="currentColor" d="M967.68 632.32c0-10.24-5.12-15.36-15.36-15.36h-880.64c-10.24 0-15.36 5.12-15.36 15.36v102.4c0 10.24 5.12 20.48 15.36 20.48h880.64c10.24 0 15.36-10.24 15.36-20.48v-102.4zM967.68 396.8c0-10.24-5.12-15.36-15.36-15.36h-880.64c-10.24 0-15.36 5.12-15.36 15.36v102.4c0 10.24 5.12 20.48 15.36 20.48h880.64c10.24 0 15.36-10.24 15.36-20.48v-102.4zM967.68 161.28c0-10.24-5.12-15.36-15.36-15.36h-880.64c-10.24 0-15.36 5.12-15.36 15.36v102.4c0 10.24 5.12 15.36 15.36 15.36h880.64c10.24 0 15.36-5.12 15.36-15.36v-102.4z"/></svg>
